<svg width="48" height="53" viewBox="0 0 48 53" fill="none" xmlns="http://www.w3.org/2000/svg">
<path d="M24.4174 2.27659C24.9571 2.27645 25.4876 2.41848 25.9549 2.68838L44.185 13.2136C44.6525 13.4835 45.0406 13.8717 45.3104 14.3392C45.5803 14.8067 45.7225 15.337 45.7225 15.8768V36.9272C45.7225 37.467 45.5803 37.9972 45.3104 38.4648C45.0406 38.9321 44.6525 39.3204 44.185 39.5902L25.9549 50.1155C25.4873 50.3853 24.9571 50.5275 24.4173 50.5275C23.8774 50.5275 23.3471 50.3853 22.8796 50.1155L4.64955 39.5902C4.18208 39.3204 3.79388 38.9321 3.524 38.4648C3.25412 37.9972 3.11203 37.467 3.11205 36.9272V15.8768C3.11204 15.337 3.25412 14.8067 3.524 14.3392C3.79391 13.8717 4.18208 13.4835 4.64955 13.2136L22.8796 2.68838C23.3472 2.4185 23.8775 2.27647 24.4174 2.27659ZM24.4174 0C23.478 0.000366849 22.5553 0.247632 21.7416 0.717013L3.51125 11.2422C2.69872 11.7131 2.02396 12.3889 1.5544 13.2022C1.08485 14.0155 0.836941 14.9377 0.835449 15.8768V36.9272C0.836989 37.8664 1.08495 38.7887 1.55454 39.6019C2.02413 40.4152 2.69893 41.091 3.51149 41.5618L21.7416 52.0871C22.5552 52.5568 23.478 52.8038 24.4174 52.8038C25.3568 52.8038 26.2796 52.5568 27.0932 52.0871L45.3233 41.5618C46.1359 41.0912 46.8109 40.4152 47.2806 39.6021C47.7503 38.7887 47.9984 37.8664 48 36.9272V15.8768C47.9986 14.9377 47.7506 14.0155 47.2811 13.2022C46.8114 12.3889 46.1366 11.7131 45.3242 11.2422L27.0941 0.717013C26.2805 0.247663 25.3577 0.000400234 24.4183 0H24.4174Z" fill="white"/>
</svg>
